PathFileType	4	(X/Y/Z)	./resultDataOpenSim/trcMotMarkerGrf/sub06/qtm-04-01.trc
DataRate	CameraRate	NumFrames	NumMarkers	Units	OrigDataRate	OrigDataStartFrame	OrigNumFrames
250.000000	250.000000	7	24	m	250.000000	1	513
Frame#	Time	L.Toe.Tip			R.Toe.Tip			L.Ankle.Lat			R.Ankle.Lat			L.Ankle.Med			R.Ankle.Med			L.Heel			R.Heel			L.Knee.Lat			R.Knee.Lat			L.Knee.Med			R.Knee.Med			L.Thigh.Upper			R.Thigh.Upper			L.ASIS			R.ASIS			V.Sacral			L.Acromium			R.Acromium			C7			L.Elbow			R.Elbow			L.Wrist.Lat			R.Wrist.Lat
		X1	Y1	Z1	X2	Y2	Z2	X3	Y3	Z3	X4	Y4	Z4	X5	Y5	Z5	X6	Y6	Z6	X7	Y7	Z7	X8	Y8	Z8	X9	Y9	Z9	X10	Y10	Z10	X11	Y11	Z11	X12	Y12	Z12	X13	Y13	Z13	X14	Y14	Z14	X15	Y15	Z15	X16	Y16	Z16	X17	Y17	Z17	X18	Y18	Z18	X19	Y19	Z19	X20	Y20	Z20	X21	Y21	Z21	X22	Y22	Z22	X23	Y23	Z23	X24	Y24	Z24

1	0	-1.7215261	0.032482417	-0.073252555	-1.0116151	0.11912611	0.12079705	-1.8397758	0.079757602	-0.090535684	-1.1397103	0.08714404	0.13000716	-1.8352834	0.092203061	-0.0048742213	-1.1289073	0.11914476	0.045992735	NaN	NaN	NaN	-1.175264	0.043711526	0.055697924	-1.6512379	0.4052086	-0.10837895	-1.2816216	0.44954922	0.14007954	-1.6587632	0.40577403	0.011037826	-1.2932658	0.42918689	0.01161588	-1.5352003	0.76962638	-0.16894985	-1.476099	0.76397934	0.18012905	-1.443302	0.80335617	-0.13701279	-1.3993007	0.80938745	0.10814141	NaN	NaN	NaN	-1.4229446	1.291828	-0.18454228	-1.4377155	1.2745707	0.18038264	-1.4996925	1.3311312	-0.0037855628	-1.4572532	0.97254417	-0.261724	NaN	NaN	NaN	-1.2704468	0.80866451	-0.2389129	-1.573742	0.77631906	0.27917343
2	0.004	-1.7213802	0.032458324	-0.073321759	-1.000977	0.12235705	0.11991661	-1.8385762	0.081031578	-0.090987199	-1.1285022	0.087752649	0.12934783	-1.8338996	0.093537959	-0.0053592583	-1.1182933	0.12008732	0.045470813	NaN	NaN	NaN	-1.1627062	0.043822321	0.055254254	-1.6468851	0.40467516	-0.10834521	-1.2746919	0.44845462	0.13982464	-1.6548983	0.40522863	0.011278795	-1.2868607	0.42737697	0.010914671	-1.5294814	0.76830332	-0.16869144	-1.4687466	0.76253797	0.18032407	-1.4371976	0.80196107	-0.13693629	-1.392278	0.80795667	0.10815036	NaN	NaN	NaN	-1.4164478	1.290562	-0.18392189	-1.4318643	1.2732787	0.18092292	-1.4936408	1.32987	-0.003384495	-1.4498777	0.97109646	-0.26108631	NaN	NaN	NaN	-1.2628463	0.80758399	-0.23775611	-1.5681558	0.77506172	0.27960891
3	0.008	-1.7212174	0.03243801	-0.073397115	-0.99073014	0.12526489	0.11901249	-1.8373771	0.082341586	-0.091453751	-1.1176503	0.088235695	0.12863507	-1.8325046	0.094917127	-0.0058822005	-1.1080383	0.12088458	0.044844132	NaN	NaN	NaN	-1.1508683	0.043833107	0.054754946	-1.6424778	0.40415656	-0.10834468	-1.2676945	0.44736784	0.13963191	-1.650858	0.40466414	0.011459002	-1.2803793	0.42565979	0.01025846	-1.5237081	0.76694311	-0.16844715	-1.46142	0.76115077	0.18057102	-1.4310364	0.80059123	-0.13681152	-1.3852718	0.80657458	0.10814948	NaN	NaN	NaN	-1.4099527	1.2893118	-0.18332644	-1.4259395	1.2720056	0.1814622	-1.4876014	1.3286272	-0.0028816746	-1.4425101	0.96969766	-0.26040779	NaN	NaN	NaN	-1.2552805	0.80651546	-0.23663803	-1.5624966	0.77383105	0.28005867
4	0.012	-1.721035	0.032417043	-0.073478856	-0.98106414	0.12765894	0.11802388	-1.8361395	0.083730131	-0.091938758	-1.1073804	0.088514022	0.12783586	-1.8309714	0.09637858	-0.0064828532	-1.0983509	0.12144201	0.044063416	NaN	NaN	NaN	-1.139994	0.043700505	0.054154564	-1.638033	0.40363644	-0.10839512	-1.2605853	0.44631939	0.13951789	-1.6463814	0.40407247	0.01152512	-1.2737598	0.42409147	0.0096857543	-1.5177898	0.76555068	-0.16812721	-1.4541018	0.75986561	0.18087701	-1.4247765	0.79926984	-0.13662385	-1.3782302	0.80528117	0.10814999	NaN	NaN	NaN	-1.4034372	1.2880938	-0.1827413	-1.4199038	1.2707676	0.18201034	-1.4815352	1.3274226	-0.0022995678	-1.4351319	0.96837761	-0.25966121	NaN	NaN	NaN	-1.2477612	0.8054679	-0.23556136	-1.5567103	0.77264634	0.28051791
5	0.016	-1.7208401	0.032394615	-0.073565287	-0.97196431	0.12949502	0.11685952	-1.8348314	0.08521738	-0.09243909	-1.0977954	0.08855933	0.12693692	-1.8290897	0.097957223	-0.007203837	-1.0892985	0.12172175	0.043142453	NaN	NaN	NaN	-1.1299939	0.043426107	0.053443683	-1.633599	0.40308782	-0.10850757	-1.2533738	0.44534053	0.13945747	-1.6414352	0.40345622	0.011473356	-1.2669838	0.42270963	0.0092149965	-1.5116682	0.76417155	-0.16761593	-1.4467451	0.75871738	0.18122273	-1.41841	0.79802004	-0.13637673	-1.3711016	0.80410175	0.10816538	NaN	NaN	NaN	-1.396884	1.2869288	-0.18213722	-1.4137555	1.2695768	0.18258012	-1.4753662	1.3262806	-0.0016874371	-1.4277023	0.96714762	-0.2588012	NaN	NaN	NaN	-1.2402965	0.8044487	-0.23450652	-1.5508101	0.77150805	0.2809706
6	0.02	-1.7206417	0.032383212	-0.073654952	-0.96333185	0.13078107	0.11545507	-1.8334558	0.086800556	-0.092958273	-1.0889105	0.088365534	0.12594154	-1.8267991	0.099671633	-0.0080484014	-1.0808751	0.12170913	0.042124991	NaN	NaN	NaN	-1.120793	0.043000363	0.052668321	-1.6290766	0.40250164	-0.10870056	-1.2460726	0.44444988	0.13941619	-1.6362838	0.40282089	0.011357088	-1.2600612	0.42155917	0.008841548	-1.5053723	0.76286004	-0.16692866	-1.439285	0.75773974	0.18160027	-1.4119405	0.79686089	-0.13606964	-1.3638513	0.8030394	0.10819448	NaN	NaN	NaN	-1.3902833	1.2858353	-0.18150309	-1.4074897	1.2684393	0.18318146	-1.4690516	1.3252114	-0.001055378	-1.4201831	0.96601095	-0.25778377	NaN	NaN	NaN	-1.2328862	0.80346059	-0.23345532	-1.5448427	0.77040277	0.28140952
7	0.024	-1.7204446	0.032398396	-0.073745825	-0.95515181	0.13146631	0.11384373	-1.8320239	0.088478038	-0.093504632	-1.0806975	0.087926658	0.12487682	-1.8245479	0.10147774	-0.0088880865	-1.0730683	0.12138687	0.041053108	NaN	NaN	NaN	-1.1124307	0.042388778	0.051900906	-1.6242591	0.40189201	-0.10896392	-1.2386651	0.44366273	0.13936062	-1.631066	0.40217326	0.011231505	-1.2530226	0.42068564	0.0085472311	-1.4989721	0.76165207	-0.16617735	-1.4316847	0.75696424	0.18201142	-1.4053736	0.79580021	-0.13570643	-1.3564563	0.80208315	0.10823257	NaN	NaN	NaN	-1.3836317	1.2848223	-0.18083893	-1.4011074	1.2673569	0.18382008	-1.4626204	1.3242029	-0.00040939569	-1.4126197	0.96496819	-0.25665913	NaN	NaN	NaN	-1.225529	0.80250582	-0.23239991	-1.53883	0.76932923	0.28184399
